<svg xmlns="http://www.w3.org/2000/svg" width="178.424" height="58" viewBox="0 0 178.424 58"><path d="M275.065,985.986a7.863,7.863,0,0,1-7.885,7.839H104.529a7.864,7.864,0,0,1-7.888-7.839V943.663a7.864,7.864,0,0,1,7.888-7.838H267.179a7.862,7.862,0,0,1,7.885,7.838Z" transform="translate(-96.641 -935.825)" fill="#333"/><g transform="translate(11.969 9.017)"><path d="M166.2,1009.85a28.676,28.676,0,0,1-2.613,4.848c-1.7,2.567-4.089,5.764-7.052,5.791-2.634.024-3.31-1.7-6.883-1.684s-4.32,1.714-6.954,1.69c-2.963-.027-5.229-2.914-6.927-5.481-4.745-7.178-5.241-15.6-2.315-20.081a10.512,10.512,0,0,1,8.445-5.046c3.141,0,5.116,1.712,7.712,1.712,2.519,0,4.054-1.715,7.685-1.715a10.269,10.269,0,0,1,7.726,4.054A8.763,8.763,0,0,0,166.2,1009.85Z" transform="translate(-131.637 -980.529)" fill="#fff"/><g transform="translate(16.611)"><path d="M186.5,968.844a8.723,8.723,0,0,0,1.958-6.489,9.544,9.544,0,0,0-6.148,3.287,8.1,8.1,0,0,0-2.009,6.329A8.056,8.056,0,0,0,186.5,968.844Z" transform="translate(-180.207 -962.355)" fill="#fff"/></g></g><g transform="translate(54.187 9.102)"><g transform="translate(0 13.894)"><path d="M261.879,1004.42l-6.8,19.883h3.113l2.029-6.105h6.581l2.087,6.105h3.2l-6.827-19.883Zm1.613,3.269c.229.888.477,1.809.8,2.805l1.832,5.272h-5.214l1.806-5.307C262.987,1009.6,263.249,1008.67,263.492,1007.689Z" transform="translate(-255.082 -1004.103)" fill="#fff"/><path d="M315.716,1019.586a5.677,5.677,0,0,0-4.813,2.294l-.121-1.978h-2.769l.016.253c.082,1.232.116,2.588.116,4.535v15.326h3.027v-7.152a5.331,5.331,0,0,0,4.138,1.767,6.26,6.26,0,0,0,4.587-1.938,8.188,8.188,0,0,0,2.025-5.786,7.969,7.969,0,0,0-1.759-5.283A5.775,5.775,0,0,0,315.716,1019.586Zm-.754,2.491c2.7,0,3.906,2.484,3.906,4.946,0,3.175-1.541,5.147-4.021,5.147a3.666,3.666,0,0,1-3.566-2.792,3.815,3.815,0,0,1-.107-.974v-2.419a4.5,4.5,0,0,1,.1-.742c.015-.082.031-.165.043-.244A3.828,3.828,0,0,1,314.962,1022.077Z" transform="translate(-289.911 -1014.115)" fill="#fff"/><path d="M361.3,1019.586a5.68,5.68,0,0,0-4.813,2.294l-.121-1.978H353.6l.015.253c.082,1.233.117,2.588.117,4.535v15.326h3.027v-7.152a5.329,5.329,0,0,0,4.137,1.767,6.269,6.269,0,0,0,4.589-1.938,8.2,8.2,0,0,0,2.024-5.786,7.971,7.971,0,0,0-1.76-5.283A5.772,5.772,0,0,0,361.3,1019.586Zm-.753,2.491c2.7,0,3.905,2.484,3.905,4.946,0,3.175-1.542,5.147-4.021,5.147a3.666,3.666,0,0,1-3.566-2.792,3.821,3.821,0,0,1-.107-.974v-2.419a4.442,4.442,0,0,1,.1-.745c.015-.081.03-.162.044-.242A3.826,3.826,0,0,1,360.544,1022.077Z" transform="translate(-319.904 -1014.115)" fill="#fff"/><path d="M419.352,1012.23c-2.825-1.087-3.73-1.942-3.73-3.522,0-1.33,1.064-2.672,3.441-2.672a6.911,6.911,0,0,1,3.554.887l.256.157.854-2.511-.169-.1a8.816,8.816,0,0,0-4.408-.983c-3.86,0-6.557,2.265-6.557,5.506,0,2.615,1.688,4.442,5.313,5.752,2.569.954,3.525,1.932,3.525,3.608,0,1.9-1.475,3.074-3.848,3.074a8.324,8.324,0,0,1-4.363-1.23l-.263-.167-.813,2.569.149.1A10.422,10.422,0,0,0,417.41,1024c5.2,0,7.048-3.152,7.048-5.852C424.458,1015.368,422.979,1013.652,419.352,1012.23Z" transform="translate(-358.43 -1003.488)" fill="#fff"/><path d="M454.188,1010.439l-2.969.926v2.5h-2.173v2.4h2.173v7.365a5.6,5.6,0,0,0,1.048,3.817,3.893,3.893,0,0,0,2.929,1.143,7.181,7.181,0,0,0,2.34-.359l.17-.06-.145-2.409-.29.089a4.58,4.58,0,0,1-1.408.162c-1.173,0-1.674-.737-1.674-2.469v-7.278h3.652v-2.4h-3.652Z" transform="translate(-382.71 -1008.077)" fill="#fff"/><path d="M482.855,1019.586c-4.236,0-7.193,3.142-7.193,7.638,0,4.362,2.862,7.407,6.962,7.407h.028c3.465,0,7.193-2.4,7.193-7.666a7.572,7.572,0,0,0-1.929-5.321A6.757,6.757,0,0,0,482.855,1019.586Zm-.088,2.375c2.723,0,3.963,2.638,3.963,5.091,0,3.016-1.692,5.2-4.021,5.2h-.029c-2.3,0-3.962-2.152-3.962-5.117C478.719,1024.562,479.971,1021.961,482.768,1021.961Z" transform="translate(-400.224 -1014.115)" fill="#fff"/><path d="M529.746,1019.726l-.182-.046a2.93,2.93,0,0,0-.753-.094,4.32,4.32,0,0,0-3.8,2.422l-.089-2.105h-2.717l.017.253c.081,1.191.114,2.527.114,4.332l-.028,9.828h3.027v-7.667a7.7,7.7,0,0,1,.083-1.166,3.337,3.337,0,0,1,3.185-3.032,7.8,7.8,0,0,1,.812.05l.324.033Z" transform="translate(-430.853 -1014.115)" fill="#fff"/><path d="M550.975,1019.5c-4.03,0-6.844,3.2-6.844,7.781,0,4.412,2.8,7.264,7.134,7.264a11.673,11.673,0,0,0,4.793-.914l.182-.081-.582-2.242-.252.1a9.437,9.437,0,0,1-3.793.674,4.2,4.2,0,0,1-4.534-4.362l9.771.029.039-.192a6.636,6.636,0,0,0,.091-1.255C556.981,1023.167,555.408,1019.5,550.975,1019.5Zm-.2,2.289a3,3,0,0,1,2.222.843,4.265,4.265,0,0,1,1.043,2.8h-6.9C547.416,1023.7,548.51,1021.791,550.774,1021.791Z" transform="translate(-445.277 -1014.06)" fill="#fff"/></g><path d="M255.082,964.076a22.194,22.194,0,0,1,2.9-.2,6.509,6.509,0,0,1,4.262,1.159,4.108,4.108,0,0,1,1.5,3.393,4.749,4.749,0,0,1-1.514,3.658,7.055,7.055,0,0,1-4.668,1.355,21.1,21.1,0,0,1-2.483-.112Zm1.374,8.335a9.822,9.822,0,0,0,1.374.056c2.9.013,4.48-1.452,4.48-3.993.016-2.248-1.389-3.63-4.262-3.63a8.673,8.673,0,0,0-1.592.126Z" transform="translate(-255.082 -963.448)" fill="#fff"/><path d="M287.686,978.5a3.4,3.4,0,0,1-3.622-3.476,3.5,3.5,0,0,1,3.747-3.588,3.376,3.376,0,0,1,3.637,3.463,3.511,3.511,0,0,1-3.746,3.6Zm.047-.922a2.41,2.41,0,0,0,2.3-2.639,2.308,2.308,0,1,0-2.311,2.639Z" transform="translate(-274.152 -968.438)" fill="#fff"/><path d="M309.306,971.891l1.015,3.421c.2.754.406,1.466.546,2.164h.047c.172-.684.421-1.41.671-2.15l1.233-3.435h1.156l1.171,3.379c.28.8.5,1.522.671,2.206h.047a18.6,18.6,0,0,1,.578-2.192l1.077-3.393h1.359l-2.435,6.758h-1.249l-1.155-3.225a22.055,22.055,0,0,1-.672-2.234h-.031a18.474,18.474,0,0,1-.687,2.248l-1.217,3.211H310.18l-2.28-6.758Z" transform="translate(-289.836 -968.736)" fill="#fff"/><path d="M343.891,973.422c0-.712-.016-1.27-.063-1.829h1.218l.078,1.1h.031a2.866,2.866,0,0,1,2.5-1.257,2.578,2.578,0,0,1,2.669,2.876v4.035h-1.373v-3.9c0-1.089-.453-2.01-1.749-2.01a1.959,1.959,0,0,0-1.842,1.256,1.645,1.645,0,0,0-.094.572v4.077h-1.373Z" transform="translate(-313.477 -968.438)" fill="#fff"/><path d="M369.346,962.607h1.374v9.913h-1.374Z" transform="translate(-330.268 -962.607)" fill="#fff"/><path d="M382.053,978.5a3.4,3.4,0,0,1-3.621-3.476,3.5,3.5,0,0,1,3.747-3.588,3.376,3.376,0,0,1,3.637,3.463,3.511,3.511,0,0,1-3.747,3.6Zm.046-.922a2.41,2.41,0,0,0,2.3-2.639,2.308,2.308,0,1,0-2.311,2.639Z" transform="translate(-336.247 -968.438)" fill="#fff"/><path d="M409.273,976.732a10.124,10.124,0,0,0,.11,1.619h-1.234l-.125-.851h-.046a2.913,2.913,0,0,1-2.31,1,2.055,2.055,0,0,1-2.311-1.941c0-1.633,1.623-2.527,4.542-2.513v-.139c0-.558-.171-1.578-1.717-1.564a3.963,3.963,0,0,0-1.983.5l-.313-.823a5.349,5.349,0,0,1,2.5-.586c2.326,0,2.888,1.41,2.888,2.764Zm-1.342-1.829c-1.5-.028-3.2.209-3.2,1.522a1.146,1.146,0,0,0,1.28,1.173,1.906,1.906,0,0,0,1.857-1.131,1.123,1.123,0,0,0,.063-.391Z" transform="translate(-352.647 -968.438)" fill="#fff"/><path d="M432.568,962.607v8.168c0,.6.017,1.284.063,1.745H431.4l-.062-1.172H431.3a2.831,2.831,0,0,1-2.56,1.326,3.231,3.231,0,0,1-3.248-3.435,3.378,3.378,0,0,1,3.388-3.63,2.6,2.6,0,0,1,2.28,1.019h.031v-4.021Zm-1.373,5.906a2.033,2.033,0,0,0-.063-.53,1.984,1.984,0,0,0-1.982-1.41,2.317,2.317,0,0,0-2.264,2.6,2.247,2.247,0,0,0,2.233,2.513,2.043,2.043,0,0,0,2.014-1.466,1.9,1.9,0,0,0,.063-.531Z" transform="translate(-367.214 -962.607)" fill="#fff"/><path d="M464.542,978.5a3.4,3.4,0,0,1-3.622-3.476,3.5,3.5,0,0,1,3.747-3.588A3.376,3.376,0,0,1,468.3,974.9a3.511,3.511,0,0,1-3.746,3.6Zm.047-.922a2.41,2.41,0,0,0,2.294-2.639,2.308,2.308,0,1,0-2.31,2.639Z" transform="translate(-390.524 -968.438)" fill="#fff"/><path d="M487.461,973.422c0-.712-.016-1.27-.063-1.829h1.218l.079,1.1h.031a2.866,2.866,0,0,1,2.5-1.257,2.578,2.578,0,0,1,2.67,2.876v4.035h-1.374v-3.9c0-1.089-.452-2.01-1.749-2.01a1.961,1.961,0,0,0-1.842,1.256,1.652,1.652,0,0,0-.093.572v4.077h-1.373Z" transform="translate(-407.946 -968.438)" fill="#fff"/><path d="M522.6,967.127v1.619h1.966v.935H522.6v3.644c0,.837.266,1.313,1.031,1.313a2.845,2.845,0,0,0,.8-.084l.062.935a4.155,4.155,0,0,1-1.218.168,2.089,2.089,0,0,1-1.483-.516,2.443,2.443,0,0,1-.53-1.774v-3.686h-1.171v-.935h1.171V967.5Z" transform="translate(-429.454 -965.591)" fill="#fff"/><path d="M537.705,962.607h1.374v4.217h.032a2.328,2.328,0,0,1,.984-.866,2.913,2.913,0,0,1,1.4-.349,2.576,2.576,0,0,1,2.638,2.89v4.021h-1.373v-3.881c0-1.1-.453-2.01-1.749-2.01a1.974,1.974,0,0,0-1.842,1.229,1.344,1.344,0,0,0-.094.586v4.077h-1.374Z" transform="translate(-441.048 -962.607)" fill="#fff"/><path d="M562.77,975.154a2.3,2.3,0,0,0,2.576,2.346,5.763,5.763,0,0,0,2.093-.336l.25.866a6.794,6.794,0,0,1-2.529.433c-2.311,0-3.716-1.383-3.716-3.406A3.45,3.45,0,0,1,565,971.4a2.965,2.965,0,0,1,3.107,3.184,2.818,2.818,0,0,1-.046.586Zm4.013-.88a1.817,1.817,0,0,0-1.89-2,2.132,2.132,0,0,0-2.107,2Z" transform="translate(-456.668 -968.41)" fill="#fff"/></g></svg>