<svg xmlns="http://www.w3.org/2000/svg" xmlns:xlink="http://www.w3.org/1999/xlink" width="178.423" height="58" viewBox="0 0 178.423 58"><defs><clipPath id="a"><path d="M160.289,343.8l-8.045-4.616-15.518-8.9c-.862-.494-1.72-.2-1.72.838V367.4c0,.774.614,1.108,1.362.679l15.876-9.11,8.045-4.616,7.733-4.436c.907-.521.82-1.235.055-1.645S160.289,343.8,160.289,343.8Z" transform="translate(-135.006 -330.047)" fill="none"/></clipPath><linearGradient id="b" x1="0.5" x2="0.5" y2="1" gradientUnits="objectBoundingBox"><stop offset="0" stop-color="#0067a2"/><stop offset="0.403" stop-color="#3d91a8"/><stop offset="0.805" stop-color="#74b7ae"/><stop offset="1" stop-color="#8ac6b1"/></linearGradient><linearGradient id="c" y1="0.5" x2="1" y2="0.5" gradientUnits="objectBoundingBox"><stop offset="0" stop-color="#50b09b"/><stop offset="1" stop-color="#e9e486"/></linearGradient><linearGradient id="d" x1="0.5" x2="0.5" y2="1" gradientUnits="objectBoundingBox"><stop offset="0" stop-color="#dc1b24"/><stop offset="0.228" stop-color="#c1203b"/><stop offset="0.748" stop-color="#8a2b6c"/><stop offset="1" stop-color="#753080"/></linearGradient><linearGradient id="e" x1="0.5" x2="0.5" y2="1" gradientUnits="objectBoundingBox"><stop offset="0" stop-color="#eb7165"/><stop offset="0.003" stop-color="#eb7164"/><stop offset="0.675" stop-color="#f9a85e"/><stop offset="1" stop-color="#ffbe5c"/></linearGradient></defs><path d="M275.064,346.235a7.863,7.863,0,0,1-7.885,7.839H104.529a7.864,7.864,0,0,1-7.888-7.839V303.912a7.864,7.864,0,0,1,7.888-7.838h162.65a7.862,7.862,0,0,1,7.885,7.838Z" transform="translate(-96.641 -296.074)" fill="#161615"/><g transform="translate(13.383 11.777)"><g transform="translate(0 0)" clip-path="url(#a)"><path d="M135.006,328.285v39.277l19.93-19.638Z" transform="translate(-135.006 -328.896)" fill="url(#b)"/><path d="M160.289,342.38l-8.045-4.616-17.238-9.891v.143l19.93,19.639Z" transform="translate(-135.006 -328.627)" fill="url(#c)"/><path d="M135.006,404.576v.143l17.238-9.891,8.045-4.616-5.353-5.274Z" transform="translate(-135.006 -365.909)" fill="url(#d)"/><path d="M197.493,369.721,192.14,375l5.353,5.274L206.687,375Z" transform="translate(-172.209 -355.968)" fill="url(#e)"/></g></g><g transform="translate(133.509 22.058)"><path d="M484.716,384.771a5,5,0,0,1-2.05-.411,3.86,3.86,0,0,1-1.558-1.266h-.126a15.26,15.26,0,0,1,.126,1.9v4.7h-1.74V373.14h1.416l.241,1.563h.084a4.04,4.04,0,0,1,1.564-1.355,4.773,4.773,0,0,1,2.044-.417,4.26,4.26,0,0,1,3.529,1.553,8.227,8.227,0,0,1-.02,8.729A4.27,4.27,0,0,1,484.716,384.771Zm-.252-10.37a3.1,3.1,0,0,0-2.548.969,4.968,4.968,0,0,0-.808,3.085v.385a5.687,5.687,0,0,0,.808,3.445,3.081,3.081,0,0,0,2.59,1.037,2.7,2.7,0,0,0,2.334-1.2,5.659,5.659,0,0,0,.844-3.3,5.447,5.447,0,0,0-.844-3.278A2.785,2.785,0,0,0,484.464,374.4Z" transform="translate(-479.368 -368.346)" fill="#f9f9f9"/><path d="M516.685,375.92h-1.741V359.7h1.741Z" transform="translate(-502.534 -359.703)" fill="#f9f9f9"/><path d="M533.826,384.6l-.346-1.626H533.4a4.815,4.815,0,0,1-1.715,1.454,5.239,5.239,0,0,1-2.134.381,3.855,3.855,0,0,1-2.679-.875,3.181,3.181,0,0,1-.971-2.491q0-3.46,5.569-3.627l1.951-.063v-.708a2.88,2.88,0,0,0-.583-1.985,2.4,2.4,0,0,0-1.861-.641,7.618,7.618,0,0,0-3.251.876l-.535-1.324a8.21,8.21,0,0,1,1.862-.719,8.107,8.107,0,0,1,2.029-.261,4.4,4.4,0,0,1,3.047.906,3.774,3.774,0,0,1,.991,2.908v7.8Zm-3.933-1.219a3.55,3.55,0,0,0,2.554-.886,3.269,3.269,0,0,0,.928-2.481v-1.032l-1.742.073a6.366,6.366,0,0,0-2.994.642,1.93,1.93,0,0,0-.917,1.766,1.775,1.775,0,0,0,.572,1.428A2.38,2.38,0,0,0,529.893,383.383Z" transform="translate(-509.666 -368.385)" fill="#f9f9f9"/><path d="M555.222,373.533h1.866l2.517,6.514a24.778,24.778,0,0,1,1.028,3.221h.084q.136-.533.571-1.82t2.847-7.915H566l-4.94,13.007a6.483,6.483,0,0,1-1.715,2.737,3.662,3.662,0,0,1-2.406.807,7.085,7.085,0,0,1-1.574-.176v-1.386a6.119,6.119,0,0,0,1.29.125,2.656,2.656,0,0,0,2.559-2l.639-1.625Z" transform="translate(-528.761 -368.739)" fill="#f9f9f9"/></g><g transform="translate(54.145 20.78)"><path d="M385.511,374.973a3.879,3.879,0,0,1-.313,6.618,1.679,1.679,0,0,0-.673,1.172,1.309,1.309,0,0,0,.626,1.027l.866.668c1.058.884,2.018,1.7,2.018,3.346,0,2.246-2.188,4.515-6.322,4.515-3.487,0-5.169-1.648-5.169-3.417a3.434,3.434,0,0,1,1.851-2.915,10.417,10.417,0,0,1,4.592-1.1,2.493,2.493,0,0,1-.722-1.623,2.146,2.146,0,0,1,.241-.933c-.265.025-.529.048-.77.048a3.79,3.79,0,0,1-3.99-3.75,4.288,4.288,0,0,1,1.538-3.2,6.586,6.586,0,0,1,4.3-1.315h4.952l-1.539.86ZM383.8,385.582a3.747,3.747,0,0,0-.552-.025,9.677,9.677,0,0,0-2.525.384,2.69,2.69,0,0,0-2.068,2.46c0,1.7,1.66,2.916,4.232,2.916,2.307,0,3.534-1.1,3.534-2.581C386.424,387.515,385.631,386.872,383.8,385.582Zm.7-4.54a2.407,2.407,0,0,0,.6-1.745c0-1.72-1.033-4.4-3.028-4.4a2.251,2.251,0,0,0-1.684.789,2.748,2.748,0,0,0-.529,1.768c0,1.6.938,4.252,3.006,4.252A2.47,2.47,0,0,0,384.5,381.042Z" transform="translate(-333.048 -367.841)" fill="#f9f9f9"/><path d="M347.929,384.56a5.647,5.647,0,0,1-5.856-5.63,5.931,5.931,0,0,1,6.218-5.8,5.594,5.594,0,0,1,5.736,5.629A5.847,5.847,0,0,1,347.929,384.56Zm3-1.932a4.3,4.3,0,0,0,.721-2.648c0-2.1-1.008-6.106-3.985-6.106a3.356,3.356,0,0,0-2.16.812A3.6,3.6,0,0,0,344.4,377.6c0,2.36,1.176,6.246,4.081,6.246A3.073,3.073,0,0,0,350.929,382.629Z" transform="translate(-310.602 -367.202)" fill="#f9f9f9"/><path d="M310.633,384.56a5.647,5.647,0,0,1-5.857-5.63,5.932,5.932,0,0,1,6.218-5.8,5.594,5.594,0,0,1,5.736,5.629A5.847,5.847,0,0,1,310.633,384.56Zm3-1.932a4.3,4.3,0,0,0,.72-2.648c0-2.1-1.008-6.106-3.985-6.106a3.357,3.357,0,0,0-2.16.812,3.6,3.6,0,0,0-1.1,2.911c0,2.36,1.176,6.246,4.081,6.246A3.075,3.075,0,0,0,313.634,382.629Z" transform="translate(-286.316 -367.202)" fill="#f9f9f9"/><path d="M268.483,374.011l-3.451.791a25.725,25.725,0,0,1-3.981.407c-6.661,0-9.194-4.868-9.194-8.682,0-4.652,3.6-8.967,9.75-8.967a13.976,13.976,0,0,1,3.691.5,9.436,9.436,0,0,1,3.186,1.487l-2,1.895-.844.191.6-.959a6.914,6.914,0,0,0-5.164-2.253c-3.813,0-6.685,2.879-6.685,7.075a8.505,8.505,0,0,0,8.542,8.752,7.225,7.225,0,0,0,3.065-.6v-3.86l-3.643.192,1.929-1.032H269.4l-.627.6a.56.56,0,0,0-.242.383c-.025.216-.048.912-.048,1.152Z" transform="translate(-251.856 -357.026)" fill="#f9f9f9"/><path d="M414.547,372.313c-.8-.072-.964-.215-.964-1.152V357.589c0-.052.008-.1.013-.155.1-.839.338-.983,1.087-1.415h-3.452l-1.81.864h1.845V371.69c0,.478-.1.551-.651,1.27h4.272l.893-.526C415.369,372.385,414.958,372.361,414.547,372.313Z" transform="translate(-354.457 -356.019)" fill="#f9f9f9"/><path d="M435.937,383.73c-.263.143-.526.311-.789.429a5.612,5.612,0,0,1-2.327.453,5.145,5.145,0,0,1-3.188-.929,6.149,6.149,0,0,1-2.443-5.025,5.416,5.416,0,0,1,5.488-5.5,4.681,4.681,0,0,1,2.47.667,3.941,3.941,0,0,1,1.675,2.357l-5.631,2.263-1.846.143c.6,3.025,2.659,4.786,4.937,4.786a6.221,6.221,0,0,0,2.924-.832Zm-2.252-7.1c.454-.166.694-.31.694-.643a2.373,2.373,0,0,0-2.373-2.048c-.96,0-2.756.739-2.756,3.31,0,.4.048.833.073,1.263Z" transform="translate(-366.027 -367.215)" fill="#f9f9f9"/><g transform="translate(71.508 5.941)"><path d="M457.561,373.319v1.571h-.192v-1.571h-.523v-.163h1.238v.163Z" transform="translate(-456.846 -373.156)" fill="#f9f9f9"/><path d="M462.616,374.89V373.3h-.009l-.487,1.586h-.15l-.492-1.586h-.006v1.586H461.3v-1.734h.3l.445,1.4h.006l.438-1.4h.3v1.734Z" transform="translate(-459.745 -373.156)" fill="#f9f9f9"/></g></g><g transform="translate(54.186 11.684)"><path d="M256.726,334.951h-1.2a7.864,7.864,0,0,0-.341-1.393h-1.731a7.16,7.16,0,0,0-.352,1.393h-1.128q0-.145.875-2.383a18.669,18.669,0,0,0,.875-2.465h1.416a20.491,20.491,0,0,0,.793,2.429A21.189,21.189,0,0,1,256.726,334.951Zm-1.731-2.1a20.976,20.976,0,0,1-.641-2.078h-.06a21.705,21.705,0,0,1-.663,2.078Z" transform="translate(-251.974 -329.991)" fill="#fbfcfc"/><path d="M271.941,334.951h-.926a9.055,9.055,0,0,0-1.03-1.612,8.864,8.864,0,0,1-1.229-2.1h-.06a13.048,13.048,0,0,1,.094,1.475q0,.92.052,2.242h-.922q.056-1.154.056-2.536,0-1.359-.056-2.312h1.113a7,7,0,0,0,.926,1.575,9.257,9.257,0,0,1,1.132,1.985h.056a14.047,14.047,0,0,1-.09-1.49q0-1.009-.053-2.07h.937q-.053.923-.053,2.312T271.941,334.951Z" transform="translate(-262.357 -329.991)" fill="#fbfcfc"/><path d="M287.322,332.317a2.736,2.736,0,0,1-.682,1.847,2.389,2.389,0,0,1-1.911.79q-.555,0-1.529-.045.049-1.125.049-2.536,0-1.355-.049-2.312h.656q.161,0,.48-.011c.212-.007.351-.011.416-.011a2.536,2.536,0,0,1,1.962.67A2.309,2.309,0,0,1,287.322,332.317Zm-1.023.16a1.787,1.787,0,0,0-.42-1.2,1.6,1.6,0,0,0-1.282-.49,4,4,0,0,0-.442.033q.038.745.038,1.557,0,.89.037,1.765a2.5,2.5,0,0,0,.487.049,1.42,1.42,0,0,0,1.193-.5A1.91,1.91,0,0,0,286.3,332.477Z" transform="translate(-272.307 -329.949)" fill="#fbfcfc"/><path d="M302,334.909h-1.109a7.288,7.288,0,0,0-.667-1.627.876.876,0,0,0-.749-.309q-.218,0-.416,0,0,.957.034,1.933h-1.042q.049-1.125.049-2.536,0-1.355-.049-2.312h.648q.112,0,.47-.011t.661-.011q1.72,0,1.72,1.169a1.313,1.313,0,0,1-.982,1.292v.056a1.168,1.168,0,0,1,.663.586A12.916,12.916,0,0,1,302,334.909Zm-1.405-3.426q0-.741-.959-.741a3.287,3.287,0,0,0-.622.052q.041.577.042,1.5.206.007.348.007Q300.6,332.306,300.6,331.483Z" transform="translate(-281.978 -329.949)" fill="#fbfcfc"/><path d="M315.867,332.227a2.665,2.665,0,0,1-.7,1.9,2.293,2.293,0,0,1-1.742.752,2.208,2.208,0,0,1-1.656-.691,2.423,2.423,0,0,1-.667-1.755,2.663,2.663,0,0,1,.7-1.9,2.292,2.292,0,0,1,1.742-.752,2.211,2.211,0,0,1,1.656.689A2.422,2.422,0,0,1,315.867,332.227Zm-1.034.108a1.914,1.914,0,0,0-.4-1.262,1.237,1.237,0,0,0-.989-.484,1.145,1.145,0,0,0-.929.488,1.938,1.938,0,0,0-.382,1.232,1.909,1.909,0,0,0,.4,1.26,1.237,1.237,0,0,0,.988.486,1.143,1.143,0,0,0,.929-.49A1.94,1.94,0,0,0,314.833,332.335Z" transform="translate(-290.473 -329.78)" fill="#fbfcfc"/><path d="M328.865,334.951H327.8q.049-1.154.049-2.536,0-1.359-.049-2.312h1.06q-.049.938-.048,2.312Q328.817,333.82,328.865,334.951Z" transform="translate(-301.352 -329.991)" fill="#fbfcfc"/><path d="M338.721,332.317a2.736,2.736,0,0,1-.682,1.847,2.389,2.389,0,0,1-1.911.79q-.555,0-1.529-.045.049-1.125.049-2.536,0-1.355-.049-2.312h.656q.161,0,.48-.011c.212-.007.351-.011.416-.011a2.535,2.535,0,0,1,1.962.67A2.31,2.31,0,0,1,338.721,332.317Zm-1.023.16a1.789,1.789,0,0,0-.42-1.2,1.6,1.6,0,0,0-1.282-.49,3.992,3.992,0,0,0-.442.033q.038.745.038,1.557,0,.89.037,1.765a2.5,2.5,0,0,0,.487.049,1.42,1.42,0,0,0,1.193-.5A1.911,1.911,0,0,0,337.7,332.477Z" transform="translate(-305.776 -329.949)" fill="#fbfcfc"/><path d="M358.2,334.951H357a7.815,7.815,0,0,0-.341-1.393H354.93a7.147,7.147,0,0,0-.352,1.393H353.45q0-.145.875-2.383a18.634,18.634,0,0,0,.875-2.465h1.416a20.448,20.448,0,0,0,.793,2.429A21.276,21.276,0,0,1,358.2,334.951Zm-1.731-2.1a21.053,21.053,0,0,1-.641-2.078h-.06a21.691,21.691,0,0,1-.663,2.078Z" transform="translate(-318.052 -329.991)" fill="#fbfcfc"/><path d="M372.956,331.33a1.449,1.449,0,0,1-.666,1.314,2.972,2.972,0,0,1-1.631.424q-.176,0-.251-.007,0,.7.041,1.847H369.4q.049-1.076.049-2.536,0-1.341-.049-2.312h.652q.138,0,.532-.011t.682-.011a2.155,2.155,0,0,1,1.2.32A1.081,1.081,0,0,1,372.956,331.33Zm-.967.2q0-.8-1.064-.8a3.01,3.01,0,0,0-.562.056q.041.7.041,1.594c.062.005.135.008.217.008Q371.989,332.4,371.989,331.535Z" transform="translate(-328.435 -329.949)" fill="#fbfcfc"/><path d="M385.84,331.33a1.449,1.449,0,0,1-.665,1.314,2.974,2.974,0,0,1-1.632.424c-.118,0-.2,0-.251-.007q0,.7.041,1.847H382.28q.049-1.076.049-2.536,0-1.341-.049-2.312h.652q.139,0,.532-.011t.682-.011a2.155,2.155,0,0,1,1.2.32A1.081,1.081,0,0,1,385.84,331.33Zm-.967.2q0-.8-1.064-.8a3.01,3.01,0,0,0-.562.056q.041.7.041,1.594c.062.005.135.008.217.008Q384.873,332.4,384.873,331.535Z" transform="translate(-336.825 -329.949)" fill="#fbfcfc"/><path d="M404.645,332.227a2.664,2.664,0,0,1-.7,1.9,2.292,2.292,0,0,1-1.742.752,2.208,2.208,0,0,1-1.656-.691,2.425,2.425,0,0,1-.667-1.755,2.665,2.665,0,0,1,.7-1.9,2.293,2.293,0,0,1,1.743-.752,2.212,2.212,0,0,1,1.656.689A2.424,2.424,0,0,1,404.645,332.227Zm-1.034.108a1.912,1.912,0,0,0-.4-1.262,1.236,1.236,0,0,0-.989-.484,1.145,1.145,0,0,0-.93.488,1.938,1.938,0,0,0-.382,1.232,1.909,1.909,0,0,0,.4,1.26,1.236,1.236,0,0,0,.987.486,1.142,1.142,0,0,0,.929-.49A1.938,1.938,0,0,0,403.611,332.335Z" transform="translate(-348.282 -329.78)" fill="#fbfcfc"/><path d="M420.6,334.951h-.925a9.057,9.057,0,0,0-1.03-1.612,8.87,8.87,0,0,1-1.229-2.1h-.06a13.12,13.12,0,0,1,.093,1.475q0,.92.053,2.242h-.922q.056-1.154.056-2.536,0-1.359-.056-2.312H417.7a7.009,7.009,0,0,0,.926,1.575,9.257,9.257,0,0,1,1.132,1.985h.056a13.972,13.972,0,0,1-.09-1.49q0-1.009-.052-2.07h.937q-.052.923-.052,2.312T420.6,334.951Z" transform="translate(-359.162 -329.991)" fill="#fbfcfc"/></g></svg>