<svg xmlns="http://www.w3.org/2000/svg" xmlns:xlink="http://www.w3.org/1999/xlink" width="874" height="404" viewBox="0 0 874 404"><defs><linearGradient id="a" x1="-0.326" y1="0.511" x2="0.369" y2="0.512" gradientUnits="objectBoundingBox"><stop offset="0" stop-color="#fff" stop-opacity="0"/><stop offset="0.498" stop-color="#fff" stop-opacity="0.2"/><stop offset="1" stop-color="#fff" stop-opacity="0"/></linearGradient></defs><g transform="translate(2456 296) rotate(90)"><rect width="404" height="874" transform="translate(-296 1582)" fill="#fff"/><rect width="667" height="375" rx="4" transform="translate(-281 2350) rotate(-90)" fill="#fff"/><circle cx="6" cy="6" r="6" transform="translate(-148 1638)" fill="#f0f0f0"/><circle cx="6" cy="6" r="6" transform="translate(-100 1620)" fill="#e0e0e0"/><g transform="translate(-127 2365)" fill="#fff" stroke="#e0e0e0" stroke-width="4"><circle cx="33" cy="33" r="33" stroke="none"/><circle cx="33" cy="33" r="31" fill="none"/></g><rect width="72" height="10" rx="5" transform="translate(-130 1639)" fill="#e0e0e0"/><path d="M87.515-1257H58a58.065,58.065,0,0,1-58-58v-758a58.066,58.066,0,0,1,58-58H87.515A58.165,58.165,0,0,0,30-2073v758a58.162,58.162,0,0,0,57.516,58Z" transform="translate(-296 3713)" fill="url(#a)"/><path d="M87.515-1257H58a58.065,58.065,0,0,1-58-58v-758a58.066,58.066,0,0,1,58-58H87.515A58.165,58.165,0,0,0,30-2073v758a58.162,58.162,0,0,0,57.516,58Z" transform="translate(107.515 325) rotate(180)" fill="url(#a)"/></g></svg>