<svg xmlns="http://www.w3.org/2000/svg" width="29.25" height="26.999" viewBox="0 0 29.25 26.999"><path d="M31.915,26.627C28.273,26.065,28,25.8,28,25.8c1.1-5.2-1.575-10.624-5.365-13.753-5.048-4.162-12.72-1.139-18.7-7.467-1.392-1.477-.584,16.559,6.9,23.393a13.152,13.152,0,0,0,13.676,2.644,7.829,7.829,0,0,0,2.721-2.384,20.634,20.634,0,0,0,4.359,1C32.618,29.362,33.138,26.817,31.915,26.627Zm-6.455.52c-5.463-1.638-10.216-5.7-13.3-8.873a.287.287,0,0,1,.387-.422,42.759,42.759,0,0,0,13.591,7.587A2.622,2.622,0,0,1,25.46,27.148Z" transform="translate(-3.376 -4.499)" fill="#fff"/></svg>